<svg width="24" height="24" viewBox="0 0 24 24" fill="none" xmlns="http://www.w3.org/2000/svg">
<path d="M12 21.0029C16.9706 21.0029 21 16.9735 21 12.0029C21 7.03237 16.9706 3.00293 12 3.00293C7.02944 3.00293 3 7.03237 3 12.0029C3 16.9735 7.02944 21.0029 12 21.0029Z" stroke="#030712" stroke-width="1.5" stroke-linecap="round" stroke-linejoin="round"/>
<path d="M5.625 5.6499C6.45867 6.48429 7.11963 7.47488 7.57006 8.56498C8.02048 9.65509 8.25154 10.8233 8.25 12.0028C8.25154 13.1823 8.02049 14.3505 7.57008 15.4406C7.11966 16.5307 6.45872 17.5212 5.62507 18.3556" stroke="#030712" stroke-width="1.5" stroke-linecap="round" stroke-linejoin="round"/>
<path d="M18.375 5.6499C16.6939 7.33681 15.75 9.62124 15.75 12.0028C15.75 14.3843 16.6939 16.6687 18.3749 18.3556" stroke="#030712" stroke-width="1.5" stroke-linecap="round" stroke-linejoin="round"/>
<path d="M3 12.0029H21" stroke="#030712" stroke-width="1.5" stroke-linecap="round" stroke-linejoin="round"/>
<path d="M12 3.00293V21.0029" stroke="#030712" stroke-width="1.5" stroke-linecap="round" stroke-linejoin="round"/>
</svg>
