<svg width="24" height="24" viewBox="0 0 24 24" fill="none" xmlns="http://www.w3.org/2000/svg">
<path d="M9 21.0029H15" stroke="#030712" stroke-width="1.5" stroke-linecap="round" stroke-linejoin="round"/>
<path d="M5.26904 9.75287C5.2678 8.86338 5.44262 7.98244 5.78343 7.16083C6.12424 6.33921 6.6243 5.59318 7.25477 4.96573C7.88525 4.33828 8.63368 3.84182 9.45693 3.50497C10.2802 3.16812 11.1619 2.99754 12.0514 3.00306C15.763 3.03065 18.7317 6.11568 18.7317 9.83761V10.5029C18.7317 13.8606 19.4342 15.809 20.0529 16.8739C20.1196 16.9877 20.1551 17.1171 20.1558 17.249C20.1565 17.3808 20.1224 17.5106 20.0569 17.6251C19.9915 17.7395 19.8971 17.8348 19.7831 17.9011C19.6691 17.9674 19.5397 18.0025 19.4078 18.0029H4.59222C4.46034 18.0025 4.33087 17.9674 4.21689 17.9011C4.1029 17.8347 4.00844 17.7395 3.94301 17.625C3.87759 17.5104 3.84352 17.3807 3.84425 17.2488C3.84498 17.1169 3.88048 16.9876 3.94716 16.8738C4.56622 15.8088 5.26904 13.8604 5.26904 10.5029L5.26904 9.75287Z" stroke="#030712" stroke-width="1.5" stroke-linecap="round" stroke-linejoin="round"/>
</svg>
