<svg width="24" height="24" viewBox="0 0 24 24" fill="none" xmlns="http://www.w3.org/2000/svg">
<path d="M7.5 3.75293H4.5C4.08579 3.75293 3.75 4.08872 3.75 4.50293V19.5029C3.75 19.9171 4.08579 20.2529 4.5 20.2529H7.5C7.91421 20.2529 8.25 19.9171 8.25 19.5029V4.50293C8.25 4.08872 7.91421 3.75293 7.5 3.75293Z" stroke="#030712" stroke-width="1.5" stroke-linecap="round" stroke-linejoin="round"/>
<path d="M3.75 7.50293H8.25" stroke="#030712" stroke-width="1.5" stroke-linecap="round" stroke-linejoin="round"/>
<path d="M12 3.75293H9C8.58579 3.75293 8.25 4.08872 8.25 4.50293V19.5029C8.25 19.9171 8.58579 20.2529 9 20.2529H12C12.4142 20.2529 12.75 19.9171 12.75 19.5029V4.50293C12.75 4.08872 12.4142 3.75293 12 3.75293Z" stroke="#030712" stroke-width="1.5" stroke-linecap="round" stroke-linejoin="round"/>
<path d="M8.25 16.5029H12.75" stroke="#030712" stroke-width="1.5" stroke-linecap="round" stroke-linejoin="round"/>
<path d="M16.3761 3.51282L13.4784 4.28928C13.0783 4.39649 12.8408 4.80774 12.948 5.20785L16.8303 19.6968C16.9375 20.0969 17.3488 20.3343 17.7489 20.2271L20.6467 19.4507C21.0468 19.3435 21.2842 18.9322 21.177 18.5321L17.2947 4.04316C17.1875 3.64305 16.7762 3.40562 16.3761 3.51282Z" stroke="#030712" stroke-width="1.5" stroke-linecap="round" stroke-linejoin="round"/>
<path d="M16.054 16.799L20.4006 15.6343" stroke="#030712" stroke-width="1.5" stroke-linecap="round" stroke-linejoin="round"/>
<path d="M13.7244 8.1056L18.071 6.94092" stroke="#030712" stroke-width="1.5" stroke-linecap="round" stroke-linejoin="round"/>
</svg>
