<svg width="24" height="24" viewBox="0 0 24 24" fill="none" xmlns="http://www.w3.org/2000/svg">
<path d="M1.5 20.2515H22.5" stroke="#030712" stroke-width="1.5" stroke-linecap="round" stroke-linejoin="round"/>
<path d="M13.4995 20.2515V3.75146C13.4995 3.55255 13.4205 3.36179 13.2798 3.22113C13.1392 3.08048 12.9484 3.00146 12.7495 3.00146H3.74951C3.5506 3.00146 3.35983 3.08048 3.21918 3.22113C3.07853 3.36179 2.99951 3.55255 2.99951 3.75146V20.2515" stroke="#030712" stroke-width="1.5" stroke-linecap="round" stroke-linejoin="round"/>
<path d="M20.9995 20.2515V9.75146C20.9995 9.55255 20.9205 9.36179 20.7798 9.22113C20.6392 9.08048 20.4484 9.00146 20.2495 9.00146H13.4995" stroke="#030712" stroke-width="1.5" stroke-linecap="round" stroke-linejoin="round"/>
<path d="M5.99951 6.75146H8.99951" stroke="#030712" stroke-width="1.5" stroke-linecap="round" stroke-linejoin="round"/>
<path d="M7.49951 12.7515H10.4995" stroke="#030712" stroke-width="1.5" stroke-linecap="round" stroke-linejoin="round"/>
<path d="M5.99951 16.5015H8.99951" stroke="#030712" stroke-width="1.5" stroke-linecap="round" stroke-linejoin="round"/>
<path d="M16.4995 16.5015H17.9995" stroke="#030712" stroke-width="1.5" stroke-linecap="round" stroke-linejoin="round"/>
<path d="M16.4995 12.7515H17.9995" stroke="#030712" stroke-width="1.5" stroke-linecap="round" stroke-linejoin="round"/>
</svg>
