<svg width="24" height="24" viewBox="0 0 24 24" fill="none" xmlns="http://www.w3.org/2000/svg">
<path d="M19.5 19.5029H4.5C4.10218 19.5029 3.72064 19.3449 3.43934 19.0636C3.15804 18.7823 3 18.4008 3 18.0029V7.50293C3 7.1051 3.15804 6.72357 3.43934 6.44227C3.72064 6.16097 4.10218 6.00293 4.5 6.00293H7.49945L8.99945 3.75293H14.9995L16.4995 6.00293H19.5C19.8978 6.00293 20.2794 6.16097 20.5607 6.44227C20.842 6.72357 21 7.1051 21 7.50293V18.0029C21 18.4008 20.842 18.7823 20.5607 19.0636C20.2794 19.3449 19.8978 19.5029 19.5 19.5029Z" stroke="#030712" stroke-width="1.5" stroke-linecap="round" stroke-linejoin="round"/>
<path d="M12 15.7529C13.864 15.7529 15.375 14.2419 15.375 12.3779C15.375 10.514 13.864 9.00293 12 9.00293C10.136 9.00293 8.625 10.514 8.625 12.3779C8.625 14.2419 10.136 15.7529 12 15.7529Z" stroke="#030712" stroke-width="1.5" stroke-linecap="round" stroke-linejoin="round"/>
</svg>
