<svg width="24" height="24" viewBox="0 0 24 24" fill="none" xmlns="http://www.w3.org/2000/svg">
<path d="M8.25 2.25293V5.25293" stroke="#030712" stroke-width="1.5" stroke-linecap="round" stroke-linejoin="round"/>
<path d="M11.25 2.25293V5.25293" stroke="#030712" stroke-width="1.5" stroke-linecap="round" stroke-linejoin="round"/>
<path d="M14.25 2.25293V5.25293" stroke="#030712" stroke-width="1.5" stroke-linecap="round" stroke-linejoin="round"/>
<path d="M3 20.2529H19.5" stroke="#030712" stroke-width="1.5" stroke-linecap="round" stroke-linejoin="round"/>
<path d="M7.80905 20.2533C6.37372 19.5944 5.15763 18.5375 4.30519 17.208C3.45274 15.8785 2.99974 14.3323 3 12.7529V8.25293H19.5V12.7529C19.5003 14.3323 19.0473 15.8785 18.1948 17.208C17.3423 18.5375 16.1262 19.5945 14.6909 20.2533" stroke="#030712" stroke-width="1.5" stroke-linecap="round" stroke-linejoin="round"/>
<path d="M19.5001 8.25293C20.2957 8.25293 21.0588 8.569 21.6214 9.13161C22.184 9.69422 22.5001 10.4573 22.5001 11.2529V12.0029C22.5001 12.7986 22.184 13.5616 21.6214 14.1242C21.0588 14.6869 20.2957 15.0029 19.5001 15.0029H19.1833" stroke="#030712" stroke-width="1.5" stroke-linecap="round" stroke-linejoin="round"/>
</svg>
