<svg width="24" height="24" viewBox="0 0 24 24" fill="none" xmlns="http://www.w3.org/2000/svg">
<path d="M14.25 10.1279H17.25" stroke="#030712" stroke-width="1.5" stroke-linecap="round" stroke-linejoin="round"/>
<path d="M6.75 10.1279H9.75" stroke="#030712" stroke-width="1.5" stroke-linecap="round" stroke-linejoin="round"/>
<path d="M8.25 8.62793V11.6279" stroke="#030712" stroke-width="1.5" stroke-linecap="round" stroke-linejoin="round"/>
<path d="M16.1267 5.22852L7.87544 5.25291C6.72928 5.25299 5.61977 5.65681 4.74168 6.39346C3.86359 7.13011 3.27304 8.15253 3.0737 9.28123L3.0745 9.28137L1.54034 17.1716C1.44344 17.7214 1.52433 18.2878 1.77125 18.7885C2.01818 19.2892 2.41829 19.6981 2.91347 19.9559C3.40865 20.2136 3.97311 20.3069 4.52488 20.222C5.07665 20.1371 5.58698 19.8785 5.98177 19.4838L5.98162 19.4836L10.035 15.0029L16.1267 14.9785C17.4197 14.9785 18.6596 14.4649 19.5739 13.5507C20.4881 12.6364 21.0017 11.3964 21.0017 10.1035C21.0017 8.81059 20.4881 7.57061 19.5739 6.65637C18.6596 5.74213 17.4197 5.22852 16.1267 5.22852V5.22852Z" stroke="#030712" stroke-width="1.5" stroke-linecap="round" stroke-linejoin="round"/>
<path d="M20.9277 9.25684L22.4606 17.1715C22.5575 17.7213 22.4766 18.2877 22.2297 18.7883C21.9827 19.289 21.5826 19.6979 21.0874 19.9557C20.5923 20.2135 20.0278 20.3067 19.476 20.2218C18.9243 20.1369 18.4139 19.8784 18.0191 19.4836L18.0193 19.4835L13.9688 14.987" stroke="#030712" stroke-width="1.5" stroke-linecap="round" stroke-linejoin="round"/>
</svg>
