<svg width="24" height="24" viewBox="0 0 24 24" fill="none" xmlns="http://www.w3.org/2000/svg">
<path d="M20.0045 10.2796L12.504 3.46068C12.3659 3.33516 12.186 3.26562 11.9995 3.26563C11.8129 3.26563 11.633 3.33519 11.4949 3.46071L3.99545 10.2796C3.91814 10.3499 3.85637 10.4356 3.8141 10.5311C3.77183 10.6267 3.75 10.73 3.75 10.8345V19.5028C3.75 19.7017 3.82902 19.8924 3.96967 20.0331C4.11032 20.1738 4.30109 20.2528 4.5 20.2528H19.5C19.6989 20.2528 19.8897 20.1738 20.0303 20.0331C20.171 19.8924 20.25 19.7017 20.25 19.5028V10.8345C20.25 10.73 20.2282 10.6267 20.1859 10.5311C20.1436 10.4356 20.0818 10.3499 20.0045 10.2796Z" stroke="#030712" stroke-width="1.5" stroke-linecap="round" stroke-linejoin="round"/>
</svg>
