<svg width="24" height="24" viewBox="0 0 24 24" fill="none" xmlns="http://www.w3.org/2000/svg">
<path d="M19.5 3.75293H4.5C4.08579 3.75293 3.75 4.08872 3.75 4.50293V19.5029C3.75 19.9171 4.08579 20.2529 4.5 20.2529H19.5C19.9142 20.2529 20.25 19.9171 20.25 19.5029V4.50293C20.25 4.08872 19.9142 3.75293 19.5 3.75293Z" stroke="#030712" stroke-width="1.5" stroke-linecap="round" stroke-linejoin="round"/>
<path d="M20.25 15.0028L16.2803 11.0331C16.1397 10.8925 15.9489 10.8135 15.75 10.8135C15.5511 10.8135 15.3603 10.8925 15.2197 11.0331L11.0303 15.2225C10.8897 15.3631 10.6989 15.4422 10.5 15.4422C10.3011 15.4422 10.1103 15.3631 9.96967 15.2225L8.03033 13.2831C7.88967 13.1425 7.69891 13.0635 7.5 13.0635C7.30108 13.0635 7.11032 13.1425 6.96967 13.2831L3.75 16.5028" stroke="#030712" stroke-width="1.5" stroke-linecap="round" stroke-linejoin="round"/>
<path d="M9.375 9.56543C9.89277 9.56543 10.3125 9.1457 10.3125 8.62793C10.3125 8.11016 9.89277 7.69043 9.375 7.69043C8.85723 7.69043 8.4375 8.11016 8.4375 8.62793C8.4375 9.1457 8.85723 9.56543 9.375 9.56543Z" fill="#030712"/>
</svg>
