<svg width="24" height="24" viewBox="0 0 24 24" fill="none" xmlns="http://www.w3.org/2000/svg">
<path d="M6.49459 3.75293H17.5055C17.6523 3.75293 17.7958 3.796 17.9184 3.8768C18.0409 3.9576 18.137 4.07258 18.1949 4.20749L22.052 13.2075C22.1009 13.3216 22.1207 13.446 22.1097 13.5696C22.0986 13.6932 22.0571 13.8122 21.9888 13.9158C21.9205 14.0194 21.8275 14.1045 21.7182 14.1633C21.6089 14.2221 21.4868 14.2529 21.3626 14.2529H2.63745C2.51334 14.2529 2.39117 14.2221 2.28189 14.1633C2.17261 14.1045 2.07964 14.0194 2.01132 13.9158C1.943 13.8122 1.90146 13.6932 1.89042 13.5696C1.87939 13.446 1.8992 13.3216 1.94809 13.2075L5.80524 4.20749C5.86305 4.07258 5.95919 3.9576 6.08173 3.8768C6.20426 3.796 6.34782 3.75293 6.49459 3.75293Z" stroke="#030712" stroke-width="1.5" stroke-linecap="round" stroke-linejoin="round"/>
<path d="M12 14.2529V20.2529" stroke="#030712" stroke-width="1.5" stroke-linecap="round" stroke-linejoin="round"/>
<path d="M9 20.2529H15" stroke="#030712" stroke-width="1.5" stroke-linecap="round" stroke-linejoin="round"/>
<path d="M18.75 14.2529V18.0029" stroke="#030712" stroke-width="1.5" stroke-linecap="round" stroke-linejoin="round"/>
</svg>
