<svg width="24" height="24" viewBox="0 0 24 24" fill="none" xmlns="http://www.w3.org/2000/svg">
<path d="M3.75 16.5029V6.75293C3.75 6.3551 3.90804 5.97357 4.18934 5.69227C4.47064 5.41096 4.85218 5.25293 5.25 5.25293H18.75C19.1478 5.25293 19.5294 5.41096 19.8107 5.69227C20.092 5.97357 20.25 6.3551 20.25 6.75293V16.5029" stroke="#030712" stroke-width="1.5" stroke-linecap="round" stroke-linejoin="round"/>
<path d="M2.25 16.5029H21.75V18.0029C21.75 18.4008 21.592 18.7823 21.3107 19.0636C21.0294 19.3449 20.6478 19.5029 20.25 19.5029H3.75C3.35218 19.5029 2.97064 19.3449 2.68934 19.0636C2.40804 18.7823 2.25 18.4008 2.25 18.0029V16.5029Z" stroke="#030712" stroke-width="1.5" stroke-linecap="round" stroke-linejoin="round"/>
<path d="M13.5 8.25293H10.5" stroke="#030712" stroke-width="1.5" stroke-linecap="round" stroke-linejoin="round"/>
</svg>
