<svg width="24" height="24" viewBox="0 0 24 24" fill="none" xmlns="http://www.w3.org/2000/svg">
<path d="M8.25024 21.7529H15.7502" stroke="#030712" stroke-width="1.5" stroke-linecap="round" stroke-linejoin="round"/>
<path d="M7.37872 15.6603C6.48691 14.9638 5.7646 14.0742 5.26606 13.0583C4.76752 12.0425 4.50573 10.9269 4.50036 9.7953C4.47789 5.73008 7.75524 2.35076 11.8194 2.2551C13.3943 2.21718 14.9411 2.6761 16.2405 3.56677C17.5399 4.45744 18.5258 5.73462 19.0585 7.21717C19.5911 8.69971 19.6435 10.3123 19.2081 11.8263C18.7726 13.3403 17.8716 14.6787 16.6327 15.6517C16.3598 15.8631 16.1386 16.1338 15.9857 16.4433C15.8328 16.7528 15.7523 17.093 15.7503 17.4382L15.7503 18.003C15.7503 18.2019 15.6712 18.3927 15.5306 18.5333C15.3899 18.674 15.1992 18.753 15.0003 18.753H9.00023C8.80132 18.753 8.61056 18.674 8.4699 18.5333C8.32925 18.3927 8.25023 18.2019 8.25023 18.003L8.25022 17.4376C8.24937 17.0946 8.17045 16.7563 8.01946 16.4484C7.86846 16.1405 7.64934 15.871 7.37872 15.6603V15.6603Z" stroke="#030712" stroke-width="1.5" stroke-linecap="round" stroke-linejoin="round"/>
<path d="M12.7615 5.32666C13.6788 5.48259 14.5251 5.91951 15.1835 6.57708C15.8419 7.23464 16.2799 8.08041 16.4369 8.99757" stroke="#030712" stroke-width="1.5" stroke-linecap="round" stroke-linejoin="round"/>
</svg>
