<svg width="24" height="24" viewBox="0 0 24 24" fill="none" xmlns="http://www.w3.org/2000/svg">
<path d="M19.5 8.25293H4.5C4.08579 8.25293 3.75 8.58872 3.75 9.00293V19.5029C3.75 19.9171 4.08579 20.2529 4.5 20.2529H19.5C19.9142 20.2529 20.25 19.9171 20.25 19.5029V9.00293C20.25 8.58872 19.9142 8.25293 19.5 8.25293Z" stroke="#030712" stroke-width="1.5" stroke-linecap="round" stroke-linejoin="round"/>
<path d="M8.625 8.25293V4.87793C8.625 3.98282 8.98058 3.12438 9.61351 2.49144C10.2465 1.85851 11.1049 1.50293 12 1.50293C12.8951 1.50293 13.7535 1.85851 14.3865 2.49144C15.0194 3.12438 15.375 3.98282 15.375 4.87793V8.25293" stroke="#030712" stroke-width="1.5" stroke-linecap="round" stroke-linejoin="round"/>
<path d="M12 15.1904C12.5178 15.1904 12.9375 14.7707 12.9375 14.2529C12.9375 13.7352 12.5178 13.3154 12 13.3154C11.4822 13.3154 11.0625 13.7352 11.0625 14.2529C11.0625 14.7707 11.4822 15.1904 12 15.1904Z" fill="#030712"/>
</svg>
