<svg width="24" height="24" viewBox="0 0 24 24" fill="none" xmlns="http://www.w3.org/2000/svg">
<path d="M20.3121 14.3139C18.8398 14.723 17.2853 14.7338 15.8076 14.3451C14.3298 13.9564 12.9817 13.1823 11.9012 12.1018C10.8207 11.0213 10.0466 9.67325 9.6579 8.19546C9.26923 6.71767 9.28 5.16318 9.6891 3.69092L9.68934 3.69099C8.23722 4.09496 6.91629 4.87236 5.85813 5.94574C4.79998 7.01913 4.04155 8.35104 3.65838 9.80879C3.27522 11.2665 3.2807 12.7992 3.67428 14.2542C4.06787 15.7092 4.83581 17.0356 5.90161 18.1014C6.96741 19.1672 8.29387 19.9352 9.74885 20.3287C11.2038 20.7223 12.7365 20.7278 14.1943 20.3446C15.652 19.9614 16.9839 19.203 18.0573 18.1448C19.1307 17.0866 19.9081 15.7657 20.312 14.3136L20.3121 14.3139Z" stroke="#030712" stroke-width="1.5" stroke-linecap="round" stroke-linejoin="round"/>
</svg>
