<svg width="24" height="24" viewBox="0 0 24 24" fill="none" xmlns="http://www.w3.org/2000/svg">
<path d="M19.5 12.0029V19.5029C19.5 19.7018 19.421 19.8926 19.2803 20.0333C19.1397 20.1739 18.9489 20.2529 18.75 20.2529H4.5C4.30109 20.2529 4.11032 20.1739 3.96967 20.0333C3.82902 19.8926 3.75 19.7018 3.75 19.5029V5.25293C3.75 5.05402 3.82902 4.86325 3.96967 4.7226C4.11032 4.58195 4.30109 4.50293 4.5 4.50293H12" stroke="#030712" stroke-width="1.5" stroke-linecap="round" stroke-linejoin="round"/>
<path d="M18.375 8.25293C19.8247 8.25293 21 7.07768 21 5.62793C21 4.17818 19.8247 3.00293 18.375 3.00293C16.9253 3.00293 15.75 4.17818 15.75 5.62793C15.75 7.07768 16.9253 8.25293 18.375 8.25293Z" stroke="#030712" stroke-width="1.5" stroke-linecap="round" stroke-linejoin="round"/>
</svg>
