<svg width="24" height="24" viewBox="0 0 24 24" fill="none" xmlns="http://www.w3.org/2000/svg">
<path d="M20.625 16.4401V7.56534C20.625 7.43253 20.5897 7.30209 20.5228 7.18738C20.4559 7.07266 20.3597 6.97778 20.244 6.91242L12.369 2.46134C12.2565 2.3977 12.1293 2.36426 12 2.36426C11.8707 2.36426 11.7435 2.3977 11.631 2.46134L3.75596 6.91242C3.64033 6.97777 3.54414 7.07266 3.4772 7.18738C3.41027 7.30209 3.375 7.43253 3.375 7.56534V16.4401C3.375 16.573 3.41027 16.7034 3.4772 16.8181C3.54414 16.9328 3.64033 17.0277 3.75596 17.0931L11.631 21.5442C11.7435 21.6078 11.8707 21.6412 12 21.6412C12.1293 21.6412 12.2565 21.6078 12.369 21.5442L20.244 17.0931C20.3597 17.0277 20.4559 16.9328 20.5228 16.8181C20.5897 16.7034 20.625 16.573 20.625 16.4401V16.4401Z" stroke="#030712" stroke-width="1.5" stroke-linecap="round" stroke-linejoin="round"/>
<path d="M12 15.3779C13.864 15.3779 15.375 13.8669 15.375 12.0029C15.375 10.139 13.864 8.62793 12 8.62793C10.136 8.62793 8.625 10.139 8.625 12.0029C8.625 13.8669 10.136 15.3779 12 15.3779Z" stroke="#030712" stroke-width="1.5" stroke-linecap="round" stroke-linejoin="round"/>
</svg>
