<svg width="24" height="24" viewBox="0 0 24 24" fill="none" xmlns="http://www.w3.org/2000/svg">
<path d="M9 20.2528H4.5C4.30109 20.2528 4.11032 20.1738 3.96967 20.0331C3.82902 19.8925 3.75 19.7017 3.75 19.5028V15.3135C3.75 15.215 3.7694 15.1175 3.80709 15.0265C3.84478 14.9355 3.90003 14.8528 3.96967 14.7831L15.2197 3.53315C15.3603 3.39249 15.5511 3.31348 15.75 3.31348C15.9489 3.31348 16.1397 3.39249 16.2803 3.53315L20.4697 7.72249C20.6103 7.86314 20.6893 8.0539 20.6893 8.25282C20.6893 8.45173 20.6103 8.64249 20.4697 8.78315L9 20.2528Z" stroke="#030712" stroke-width="1.5" stroke-linecap="round" stroke-linejoin="round"/>
<path d="M12.75 6.00293L18 11.2529" stroke="#030712" stroke-width="1.5" stroke-linecap="round" stroke-linejoin="round"/>
</svg>
