<svg width="24" height="24" viewBox="0 0 24 24" fill="none" xmlns="http://www.w3.org/2000/svg">
<path d="M4.2308 18.3796C4.25418 18.4782 4.29726 18.571 4.35746 18.6525C4.41765 18.734 4.49371 18.8025 4.58107 18.8539C4.66842 18.9052 4.76525 18.9383 4.86574 18.9513C4.96624 18.9642 5.06831 18.9567 5.16582 18.9292C9.63668 17.6947 14.3584 17.6943 18.8295 18.9279C18.927 18.9554 19.029 18.9629 19.1295 18.9499C19.2299 18.937 19.3267 18.9039 19.4141 18.8526C19.5014 18.8012 19.5774 18.7328 19.6376 18.6513C19.6978 18.5699 19.7409 18.4771 19.7643 18.3786L22.1539 8.22385C22.1859 8.08791 22.1793 7.94573 22.1348 7.81334C22.0904 7.68095 22.0098 7.56359 21.9023 7.4745C21.7948 7.3854 21.6645 7.32811 21.5261 7.30906C21.3878 7.29001 21.2468 7.30997 21.1192 7.36669L16.377 9.47435C16.2058 9.55046 16.0122 9.5597 15.8345 9.50027C15.6568 9.44084 15.5078 9.31703 15.4168 9.15322L12.6556 4.18313C12.5907 4.06621 12.4956 3.96879 12.3803 3.90096C12.2651 3.83313 12.1337 3.79736 12 3.79736C11.8662 3.79736 11.7349 3.83313 11.6196 3.90096C11.5044 3.96879 11.4093 4.06621 11.3444 4.18313L8.58321 9.15322C8.49221 9.31703 8.34318 9.44084 8.16547 9.50027C7.98775 9.5597 7.79423 9.55046 7.62299 9.47435L2.88004 7.36637C2.75245 7.30967 2.61156 7.2897 2.47323 7.30873C2.3349 7.32776 2.20464 7.38503 2.09709 7.47408C1.98955 7.56314 1.909 7.68044 1.86452 7.8128C1.82003 7.94515 1.81338 8.08729 1.84531 8.22322L4.2308 18.3796Z" stroke="#030712" stroke-width="1.5" stroke-linecap="round" stroke-linejoin="round"/>
</svg>
