<svg width="24" height="24" viewBox="0 0 24 24" fill="none" xmlns="http://www.w3.org/2000/svg">
<path d="M8.69946 5.53452L7.98193 3.80225" stroke="#030712" stroke-width="1.5" stroke-linecap="round" stroke-linejoin="round"/>
<path d="M4.03159 10.2024L2.29932 9.48486" stroke="#030712" stroke-width="1.5" stroke-linecap="round" stroke-linejoin="round"/>
<path d="M19.9685 10.2024L21.7008 9.48486" stroke="#030712" stroke-width="1.5" stroke-linecap="round" stroke-linejoin="round"/>
<path d="M15.3005 5.53452L16.0181 3.80225" stroke="#030712" stroke-width="1.5" stroke-linecap="round" stroke-linejoin="round"/>
<path d="M22.5 15.0029H1.5" stroke="#030712" stroke-width="1.5" stroke-linecap="round" stroke-linejoin="round"/>
<path d="M19.5 18.7529H4.5" stroke="#030712" stroke-width="1.5" stroke-linecap="round" stroke-linejoin="round"/>
<path d="M6.57722 15.003C6.34705 14.1679 6.31285 13.291 6.47728 12.4405C6.6417 11.5901 7.00032 10.7891 7.52517 10.1C8.05002 9.41092 8.72692 8.85235 9.50311 8.46785C10.2793 8.08335 11.1338 7.8833 12 7.8833C12.8662 7.8833 13.7207 8.08335 14.4969 8.46785C15.2731 8.85235 15.95 9.41091 16.4748 10.1C16.9997 10.7891 17.3583 11.5901 17.5227 12.4405C17.6872 13.291 17.653 14.1679 17.4228 15.003" stroke="#030712" stroke-width="1.5" stroke-linecap="round" stroke-linejoin="round"/>
</svg>
