<svg width="24" height="24" viewBox="0 0 24 24" fill="none" xmlns="http://www.w3.org/2000/svg">
<path d="M7.5 13.5029C9.57107 13.5029 11.25 11.824 11.25 9.75293C11.25 7.68186 9.57107 6.00293 7.5 6.00293C5.42893 6.00293 3.75 7.68186 3.75 9.75293C3.75 11.824 5.42893 13.5029 7.5 13.5029Z" stroke="#030712" stroke-width="1.5" stroke-linecap="round" stroke-linejoin="round"/>
<path d="M14.25 7.50293H23.25" stroke="#030712" stroke-width="1.5" stroke-linecap="round" stroke-linejoin="round"/>
<path d="M14.25 12.0029H23.25" stroke="#030712" stroke-width="1.5" stroke-linecap="round" stroke-linejoin="round"/>
<path d="M16.5 16.5029H23.25" stroke="#030712" stroke-width="1.5" stroke-linecap="round" stroke-linejoin="round"/>
<path d="M1.68896 18.0029C2.02187 16.7149 2.77328 15.574 3.82511 14.7595C4.87695 13.9449 6.16959 13.5029 7.49994 13.5029C8.83029 13.5029 10.1229 13.9449 11.1748 14.7595C12.2266 15.574 12.978 16.7149 13.3109 18.0029" stroke="#030712" stroke-width="1.5" stroke-linecap="round" stroke-linejoin="round"/>
</svg>
