<svg width="24" height="24" viewBox="0 0 24 24" fill="none" xmlns="http://www.w3.org/2000/svg">
<path d="M12 21.0029C16.9706 21.0029 21 16.9735 21 12.0029C21 7.03237 16.9706 3.00293 12 3.00293C7.02944 3.00293 3 7.03237 3 12.0029C3 16.9735 7.02944 21.0029 12 21.0029Z" stroke="#030712" stroke-width="1.5" stroke-linecap="round" stroke-linejoin="round"/>
<path d="M12 15.0029C14.0711 15.0029 15.75 13.324 15.75 11.2529C15.75 9.18186 14.0711 7.50293 12 7.50293C9.92893 7.50293 8.25 9.18186 8.25 11.2529C8.25 13.324 9.92893 15.0029 12 15.0029Z" stroke="#030712" stroke-width="1.5" stroke-linecap="round" stroke-linejoin="round"/>
<path d="M5.9812 18.6942C6.54615 17.5835 7.40744 16.6508 8.46973 15.9993C9.53202 15.3478 10.7539 15.0029 12 15.0029C13.2462 15.0029 14.468 15.3478 15.5303 15.9993C16.5926 16.6507 17.4539 17.5835 18.0189 18.6942" stroke="#030712" stroke-width="1.5" stroke-linecap="round" stroke-linejoin="round"/>
</svg>
